# xmcd
#
# Track frame offsets:
#	150
#	15812
#	29667
#	52770
#	73032
#	89675
#	108127
#	133522
#	166985
#	183942
#	209852
#	225375
#	254450
#	278512
#	296172
#	311997
#
# Disc length: 4399 seconds
#
# Revision: 1
# Processed by: cddbd v1.4PL0 Copyright (c) Steve Scherf et al.
# Submitted via: audiograbber 1.82.01
#
DISCID=e2112d10
DTITLE=J.J. Cale - After Midnight In St. Paul
DYEAR=1990
DGENRE=Pop
TTITLE0=After Midnight
TTITLE1=River Boat Song
TTITLE2=Humdinger
TTITLE3=Hold On Baby
TTITLE4=New Orleans
TTITLE5=Thirteen Days
TTITLE6=Call Me The Breeze
TTITLE7=Cocaine
TTITLE8=Crazy Mama
TTITLE9=River Runs Deep
TTITLE10=Cajun Moon
TTITLE11=Bringing It Back
TTITLE12=Tijuna
TTITLE13=Lies
TTITLE14=Shanghaid
TTITLE15=Money Talks
EXTD=
EXTT0=
EXTT1=
EXTT2=
EXTT3=
EXTT4=
EXTT5=
EXTT6=
EXTT7=
EXTT8=
EXTT9=
EXTT10=
EXTT11=
EXTT12=
EXTT13=
EXTT14=
EXTT15=
PLAYORDER=
